<?xml version="1.0" encoding="UTF-8"?>
<svg id="Layer_2" data-name="Layer 2" xmlns="http://www.w3.org/2000/svg" viewBox="0 0 213.27 213.6">
  <defs>
    <style>
      .cls-1 {
        fill: #178278;
      }

      .cls-2 {
        fill: #f97e4b;
      }
    </style>
  </defs>
  <g id="Layer_1-2" data-name="Layer 1">
    <g>
      <path class="cls-2" d="M160.84,117.59c-5.49,4.67-8.27,11.8-12.4,17.69-11.04,17.09-32.25,26.2-52.07,21.76-14.69-2.94-27.13-13.24-34.42-26.33-2.49-4.09-4.77-8.38-8.01-11.65-2.74-2.86-6.7-4.87-10.85-5.77-6.82-1.52-13.92-1.23-21.27-1.25-3.28.03-6.67.08-9.83.44-9.61.89-11.47,6.18-11.82,15.98-.2,8.77-.32,19.1.14,28.05.84,20.74,10.14,28.48,23.51,42.68,4.6,4.53,10.51,10.99,16.92,11.45,5.49.14,8.06-7.06,10.06-11.99,6.86-20.25,18.81-26.5,40.34-26.44,11.68-.09,23.58-.24,35.25.14,13.91.35,24.72,4.52,31.47,15.97,3.35,5.64,5.04,13.17,8.47,18.46,6.62,10.05,17.57-2.21,23.2-7.69,23.51-23.84,23.86-28.73,23.71-62.12-.32-6.61,1.01-18.03-4.74-22.2-3.26-2.14-6.99-2.35-11.27-2.61-3.02-.14-6.42-.14-9.89-.14-8.84,0-19.86-.08-26.42,5.5l-.08.07ZM173.33,3.36c-8.33-.91-10.34,12.64-13.99,19.46-1.12,2.39-2.49,4.66-4.13,6.69-8.24,10.53-20.55,12.17-33.4,12.26-7.48.12-15.54.06-23.12.07-11.47,0-25.28.04-33.63-5.91-11.45-7.58-11.97-17.51-17.71-28.05-4.87-8.67-13.05-2.92-18.54,2.09-3.98,3.57-7.65,7.66-11.33,11.57-5.84,6.26-11.5,12.32-14.26,20.19C.24,50.05.1,58.96.03,67.86c.02,7.07-.21,15.9.51,22.25.97,10.51,7.69,11.37,16.21,11.71,7.26.15,15.64.35,22.45-.45,10.42-1.09,15.87-5.92,21.02-15.23,3.36-5.8,7.36-12.09,12.41-16.71,15.06-14.66,39.55-17.86,57.83-7.44,21.43,11.82,21.05,29.93,34.01,36.67,8.79,4.15,18.76,3.11,28.82,3.24,9.12-.29,18.25.19,19.38-11.3.79-6.53.53-14.22.58-21.33.13-15.13-.72-29.12-10.95-40.49-3.92-4.66-8.19-9.02-12.47-13.59-4.19-4.4-11.11-11.18-16.42-11.83h-.08Z"/>
      <path class="cls-1" d="M148.02,107.06c-1.31,49.53-70.1,56.83-81.81,8.76-4.49-19.93,6.97-41.24,26.44-47.82,26.84-9.56,55.48,10.28,55.36,38.93v.13Z"/>
      <path class="cls-1" d="M153.75,199.53c2.71,10.17-2.64,14.18-13.73,14.04-13.92.06-35.14.01-50.28.03-4.22,0-8.21,0-11.76,0-6.17-.23-13.84.87-17.72-4.25-4.22-6.97,1.98-19.03,8.56-23.46,6.88-4.49,15.19-4.47,23.72-4.68,8.33-.07,17.21-.04,25.61-.02,17.53-.1,30.38,1.29,35.57,18.25l.03.1Z"/>
      <path class="cls-1" d="M153.75,14.07C156.46,3.9,151.11-.11,140.02.03c-13.92-.06-35.14-.01-50.28-.03-4.22,0-8.21,0-11.76,0-6.17.23-13.84-.87-17.72,4.25-4.22,6.97,1.98,19.03,8.56,23.46,6.88,4.49,15.19,4.47,23.72,4.68,8.33.07,17.21.04,25.61.02,17.53.1,30.38-1.29,35.57-18.25l.03-.1Z"/>
    </g>
  </g>
</svg>